<?xml version="1.0" encoding="UTF-8" standalone="no"?>
<!-- Created with Inkscape (http://www.inkscape.org/) -->

<svg
   width="210mm"
   height="297mm"
   viewBox="0 0 210 297"
   version="1.1"
   id="svg5"
   inkscape:version="1.2 (dc2aedaf03, 2022-05-15)"
   sodipodi:docname="CodeysseyLogo.svg"
   xml:space="preserve"
   inkscape:export-filename="CodeysseyLogoTest.png"
   inkscape:export-xdpi="108.85714"
   inkscape:export-ydpi="108.85714"
   xmlns:inkscape="http://www.inkscape.org/namespaces/inkscape"
   xmlns:sodipodi="http://sodipodi.sourceforge.net/DTD/sodipodi-0.dtd"
   xmlns:xlink="http://www.w3.org/1999/xlink"
   xmlns="http://www.w3.org/2000/svg"
   xmlns:svg="http://www.w3.org/2000/svg"><sodipodi:namedview
     id="namedview7"
     pagecolor="#ffffff"
     bordercolor="#000000"
     borderopacity="0.25"
     inkscape:showpageshadow="2"
     inkscape:pageopacity="0.0"
     inkscape:pagecheckerboard="0"
     inkscape:deskcolor="#d1d1d1"
     inkscape:document-units="mm"
     showgrid="false"
     inkscape:zoom="1.4342967"
     inkscape:cx="415.18607"
     inkscape:cy="568.57135"
     inkscape:window-width="1920"
     inkscape:window-height="1001"
     inkscape:window-x="-9"
     inkscape:window-y="-9"
     inkscape:window-maximized="1"
     inkscape:current-layer="layer1" /><defs
     id="defs2"><linearGradient
       inkscape:collect="always"
       id="linearGradient717"><stop
         style="stop-color:#08fd6a;stop-opacity:1;"
         offset="0"
         id="stop713" /><stop
         style="stop-color:#fd1056;stop-opacity:1;"
         offset="1"
         id="stop715" /></linearGradient><linearGradient
       inkscape:collect="always"
       id="linearGradient510"><stop
         style="stop-color:#000000;stop-opacity:1;"
         offset="0"
         id="stop506" /><stop
         style="stop-color:#000000;stop-opacity:0;"
         offset="1"
         id="stop508" /></linearGradient><rect
       x="135.14365"
       y="300.62567"
       width="573.67099"
       height="395.77783"
       id="rect186" /><rect
       x="135.14365"
       y="300.62567"
       width="573.67102"
       height="395.77783"
       id="rect186-3" /><linearGradient
       inkscape:collect="always"
       xlink:href="#linearGradient510"
       id="linearGradient601"
       x1="136.24857"
       y1="323.63187"
       x2="113.11786"
       y2="346.26611"
       gradientUnits="userSpaceOnUse" /><linearGradient
       inkscape:collect="always"
       xlink:href="#linearGradient717"
       id="linearGradient711"
       x1="183.81126"
       y1="303.53665"
       x2="183.4711"
       y2="310.33374"
       gradientUnits="userSpaceOnUse" /><clipPath
       clipPathUnits="userSpaceOnUse"
       id="clipPath363"><rect
         style="fill:#9e3434;fill-opacity:0;stroke:#17abec;stroke-width:1"
         id="rect365"
         width="209.06757"
         height="78.810814"
         x="0.36486486"
         y="108.72972" /></clipPath></defs><g
     inkscape:label="Layer 1"
     inkscape:groupmode="layer"
     id="layer1"><rect
       style="fill:#ffffff;fill-opacity:1;stroke:#f6fcff;stroke-width:0;stroke-opacity:1;stroke-dasharray:none"
       id="rect367"
       width="210.26624"
       height="80.085686"
       x="-0.23659216"
       y="107.93972" /><path
       fill="#000000"
       d="m 30.947474,185.40918 a 3.4352921,2.7151641 0 1 1 0,1.08606 H 0.64819854 v -1.08606 z m 109.929336,26.06557 a 3.4352921,2.7151641 0 1 1 0,1.08607 H 56.986988 v -1.08607 z m 39.71198,-24.97951 a 3.4352921,2.7151641 0 1 1 0,-1.08606 h 28.92517 v 1.08606 z m 0,8.68853 a 3.4352921,2.7151641 0 1 1 0,-1.08607 h 28.92517 v 1.08607 z m 4.25978,-61.90573 a 3.4352921,2.7151641 0 1 1 0,1.08605 h -59.22446 a 3.4352921,2.7151641 0 1 1 0,-1.08605 z M 8.9616046,107.21246 a 3.4352921,2.7151641 0 1 1 0,1.08607 H 0.64819854 v -1.08607 z m 127.6554554,18.4631 a 3.4352921,2.7151641 0 1 1 0,-1.08605 h 59.22443 a 3.4352921,2.7151641 0 1 1 0,1.08605 z m 41.29223,-55.335045 a 3.4352921,2.7151641 0 1 1 -1.37415,0 v -6.5707 h 1.37415 z M 133.93753,183.29137 a 3.4352921,2.7151641 0 1 1 -1.3741,0 v -29.4324 a 3.4352921,2.7151641 0 1 1 1.3741,0 z M 166.91634,75.662245 v 31.550215 h 42.59762 v 1.08607 H 165.54224 V 75.662245 a 3.4352921,2.7151641 0 1 1 1.3741,0 z m 10.99295,8.688517 v 14.173173 h 31.60467 v 1.086049 H 176.53514 V 84.350762 a 3.4352921,2.7151641 0 1 1 1.37415,0 z M 89.965788,136.4819 v 40.23877 h 10.992942 v 6.5707 a 3.4352921,2.7151641 0 1 1 -1.374125,0 v -5.48465 H 88.591687 V 136.4819 a 3.4352921,2.7151641 0 1 1 1.374101,0 z m -4.053634,-11.89239 a 3.4352921,2.7151641 0 1 1 0,1.08605 h -6.939293 v 26.06557 H 59.666517 a 3.4352921,2.7151641 0 1 1 0,-1.08604 H 77.59874 v -26.06558 z m -4.259766,70.59426 a 3.4352921,2.7151641 0 1 1 0,-1.08607 h 39.918072 v -40.23873 a 3.4352921,2.7151641 0 1 1 1.37413,0 v 41.3248 z M 70.659447,160.42968 a 3.4352921,2.7151641 0 1 1 0,-1.08608 h 8.313414 v 26.06558 h 6.939293 a 3.4352921,2.7151641 0 1 1 0,1.08606 H 77.59874 v -26.06556 z m -24.665393,57.61575 a 3.4352921,2.7151641 0 1 1 -1.374116,0 v -5.48461 H 35.00112 V 228.8518 H 33.627003 V 211.47475 H 45.994054 Z M 162.86268,159.3436 a 3.4352921,2.7151641 0 1 1 0,1.08608 h -6.93929 v 51.04507 h 32.97881 v 17.37705 h -1.37412 v -16.29098 h -32.9788 V 159.3436 Z m 17.72611,-16.29097 a 3.4352921,2.7151641 0 1 1 0,-1.0861 h 8.31341 v 23.94777 a 3.4352921,2.7151641 0 1 1 -1.37412,0 v -22.86167 z m -43.97173,52.13114 a 3.4352921,2.7151641 0 1 1 0,-1.08607 h 6.93928 v -43.44261 h 10.99294 v -7.60246 h -28.92517 a 3.4352921,2.7151641 0 1 1 0,-1.0861 h 30.29928 v 9.7746 h -10.99291 v 43.44264 z M 195.84149,81.146874 a 3.4352921,2.7151641 0 1 1 0,1.086078 h -8.31341 V 63.769815 h 1.37412 V 81.146874 Z M 67.97992,119.10489 v 23.94774 H 37.680648 a 3.4352921,2.7151641 0 1 1 0,-1.0861 h 28.925165 v -22.86164 a 3.4352921,2.7151641 0 1 1 1.374107,0 z M 37.680648,82.232952 a 3.4352921,2.7151641 0 1 1 0,-1.086078 H 55.612873 V 63.769815 h 1.374115 v 18.463137 z m 41.292213,2.11781 V 99.609984 H 56.986988 v 34.754106 h -8.313406 a 3.4352921,2.7151641 0 1 1 0,-1.08605 h 6.939291 V 98.523935 H 77.59874 V 84.350762 a 3.4352921,2.7151641 0 1 1 1.374121,0 z m -8.313414,23.947768 a 3.4352921,2.7151641 0 1 1 0,-1.08607 h 17.93224 V 84.350762 a 3.4352921,2.7151641 0 1 1 1.374101,0 V 108.29853 Z M 81.652388,73.544407 a 3.4352921,2.7151641 0 1 1 0,-1.086053 h 19.306342 v 23.947744 a 3.4352921,2.7151641 0 1 1 -1.374125,0 V 73.544407 Z M 151.86976,220.16328 a 3.4352921,2.7151641 0 1 1 0,1.08605 H 67.97992 v 7.60247 h -1.374107 v -8.68852 z m 15.04658,-74.99282 v 5.48463 h 10.99295 v 18.46312 h -10.99295 v 33.66804 h 32.97878 v 26.06555 h -1.37409 v -24.97952 h -32.97879 v -35.84017 h 10.9929 v -16.29098 h -10.9929 v -6.57067 a 3.4352921,2.7151641 0 1 1 1.3741,0 z M 37.680648,73.544407 a 3.4352921,2.7151641 0 1 1 0,-1.086053 h 6.93929 V 64.855886 H 33.627003 v -1.086071 h 12.367051 v 9.774592 z m 76.950542,17.377055 a 3.4352921,2.7151641 0 1 1 0,-1.086078 h 17.93224 V 63.769815 h 34.35291 v 1.086071 H 133.93753 V 90.921462 Z M 81.652388,64.855886 a 3.4359804,2.715708 0 0 1 -6.733173,-1.086071 h 1.422207 a 2.0611752,1.6290985 0 1 0 3.888759,0 h 42.714409 v 18.463137 h -12.36706 v -6.570707 a 3.4352921,2.7151641 0 1 1 1.37414,0 v 5.484629 h 9.61879 V 64.855886 Z m 0,52.131154 a 3.4352921,2.7151641 0 1 1 0,-1.08607 H 94.775202 L 116.76107,98.523935 h 26.79527 v -22.86169 a 3.4352921,2.7151641 0 1 1 1.37414,0 V 99.609984 H 117.33132 L 95.345461,116.98704 Z m 19.306342,48.92726 a 3.4352921,2.7151641 0 1 1 -1.374125,0 v -41.54744 l 21.704175,-17.1544 h 33.2605 V 75.662245 a 3.4352921,2.7151641 0 1 1 1.37411,0 v 32.636285 h -34.07123 l -20.89343,16.5136 z m 10.99294,17.37707 a 3.4352921,2.7151641 0 1 1 -1.37414,0 v -54.03721 l 16.89477,-13.35319 h 79.36211 a 3.4352921,2.7151641 0 0 1 2.67955,-2.11783 v 1.12411 a 2.0611752,1.6290985 0 0 0 0,3.07356 v 1.12408 a 3.4352921,2.7151641 0 0 1 -2.67955,-2.11785 H 128.0357 l -16.08403,12.7124 z M 13.015249,148.53724 a 3.4352921,2.7151641 0 1 1 -1.374117,0 v -1.90602 L 44.619938,120.56564 V 89.835384 H 66.605813 V 63.769815 H 67.97992 V 90.921462 H 45.994054 V 121.01091 L 13.015249,147.07648 Z M 35.00112,93.039302 V 116.66666 L 2.0223149,142.73222 v 33.98845 H 19.954538 a 3.4352921,2.7151641 0 1 1 0,1.08605 H 0.64819854 V 142.28693 L 33.627003,116.22138 V 93.039302 a 3.4352921,2.7151641 0 1 1 1.374117,0 z m -10.992936,8.688518 v 10.59456 L 0.64819854,130.78549 v -1.53133 L 22.634065,111.87709 v -10.14927 a 3.4352921,2.7151641 0 1 1 1.374119,0 z M 8.9616046,81.146874 a 3.4352921,2.7151641 0 1 1 0,1.086078 H 7.1134181 L 0.64819854,87.342886 V 85.816962 L 6.550032,81.146874 Z M 191.58172,90.921462 a 3.4352921,2.7151641 0 1 1 0,-1.086078 h 12.84115 l 5.09109,-4.023855 v 1.531357 l -4.5277,3.578576 z m -10.99293,86.885258 a 3.4352921,2.7151641 0 1 1 0,-1.08605 h 17.93224 v -38.778 l 10.99293,-8.68851 v 1.53133 l -9.61884,7.60247 v 39.41876 z M 37.680648,195.18377 a 3.4352921,2.7151641 0 1 1 0,-1.08607 h 6.93929 V 181.83059 L 28.535899,169.11821 H 15.694778 a 3.4352921,2.7151641 0 1 1 0,-1.0861 h 13.40451 l 16.894766,13.35321 v 13.79845 z m 103.196162,7.60248 a 3.4352921,2.7151641 0 1 1 0,1.08603 H 66.605813 V 173.13663 L 39.535708,151.74113 H 26.687711 a 3.4352921,2.7151641 0 1 1 0,-1.08604 H 40.085352 L 67.97992,172.7022 v 30.08405 z m -103.196162,1.08603 a 3.4352921,2.7151641 0 1 1 0,-1.08603 H 55.612873 V 177.48634 L 34.032367,160.42968 H 15.694778 a 3.4352921,2.7151641 0 1 1 0,-1.08608 h 18.900977 l 22.391233,17.69742 v 26.83126 z M 24.008184,85.382522 v 0.874286 L 7.1134181,99.609984 H 0.64819854 V 98.523935 H 6.550032 L 22.634065,85.811529 V 63.769815 h 1.374119 z M 2.0223149,226.73398 a 3.4352921,2.7151641 0 0 1 2.679526,2.11782 H 3.2796304 a 2.0611752,1.6290985 0 0 0 -2.63143186,-0.99375 v -25.0718 H 13.015249 V 228.8518 H 11.641132 V 203.87228 H 2.0223149 Z M 24.008184,194.64075 V 228.8518 H 22.634065 V 195.18377 H 0.64819854 V 194.0977 H 24.008184 Z M 12.32819,73.544407 H 0.64819854 V 72.458354 H 11.641132 v -8.688539 h 1.374117 v 9.774592 z m 187.56693,-1.086053 h 9.61884 v 1.086053 h -10.99293 v -9.774592 h 1.37409 z M 177.90929,220.70631 v 8.14549 h -1.37415 v -7.60247 h -9.6188 v 7.60247 h -1.3741 v -8.68852 h 12.36705 z M 0.64819854,113.78314 a 3.4490331,2.7260246 0 0 1 4.12235026,2.66086 3.4352921,2.7151641 0 0 1 -4.12235026,2.66089 v -1.12408 a 2.0611752,1.6290985 0 1 0 0,-3.07356 z M 55.612873,211.47475 h 1.374115 v 17.37705 h -1.374115 z m 26.039515,17.37705 h -1.422207 a 2.0611752,1.6290985 0 0 0 -3.888759,0 h -1.422207 a 3.4352921,2.7151641 0 0 1 6.733173,0 z M 4.7018409,63.769815 A 3.4490331,2.7260246 0 0 1 0.64819854,66.973726 V 65.849644 A 2.0611752,1.6290985 0 0 0 3.2796304,63.769815 Z m 202.1325691,0 h 1.42222 a 2.0611752,1.6290985 0 0 0 1.25733,2.079829 v 1.124082 a 3.4352921,2.7151641 0 0 1 -2.67955,-3.203911 z m 2.67955,162.964165 v 1.12407 a 2.0611752,1.6290985 0 0 0 -1.25733,0.99375 h -1.42222 a 3.4352921,2.7151641 0 0 1 2.67955,-2.11782 z M 67.292867,118.07311 a 2.0611842,1.6291055 0 1 0 0,-3.25819 2.0611842,1.6291055 0 0 0 0,3.25819 z m 0,-8.68854 a 2.0611821,1.6291039 0 1 0 0,-3.2582 2.0611821,1.6291039 0 0 0 0,3.2582 z m 10.992941,8.68854 a 2.0611842,1.6291055 0 1 0 0,-3.25819 2.0611842,1.6291055 0 0 0 0,3.25819 z m 10.992924,8.68852 a 2.0611764,1.6290994 0 1 0 0,-3.25819 2.0611764,1.6290994 0 0 0 0,3.25819 z m 0,8.68852 a 2.0611813,1.6291033 0 1 0 0,-3.2582 2.0611813,1.6291033 0 0 0 0,3.2582 z m -32.978801,17.37706 a 2.0611775,1.6291002 0 1 0 0,-3.25819 2.0611775,1.6291002 0 0 0 0,3.25819 z m 10.992936,8.68851 a 2.0611775,1.6291002 0 1 0 0,-3.25819 2.0611775,1.6291002 0 0 0 0,3.25819 z m 21.985865,26.06559 a 2.0611772,1.6291 0 1 0 0,-3.2582 2.0611772,1.6291 0 0 0 0,3.2582 z m -10.992924,8.68853 a 2.0611835,1.629105 0 1 0 0,-3.25821 2.0611835,1.629105 0 0 0 0,3.25821 z m 21.985852,-8.68853 a 2.0611772,1.6291 0 1 0 0,-3.2582 2.0611772,1.6291 0 0 0 0,3.2582 z m 0,-17.37705 a 2.0611772,1.6291 0 1 0 0,-3.2582 2.0611772,1.6291 0 0 0 0,3.2582 z m 10.99293,17.37705 a 2.0611772,1.6291 0 1 0 0,-3.2582 2.0611772,1.6291 0 0 0 0,3.2582 z m 21.98588,8.68853 a 2.0611835,1.629105 0 1 0 0,-3.25821 2.0611835,1.629105 0 0 0 0,3.25821 z m 0,-8.68853 a 2.0611772,1.6291 0 1 0 0,-3.2582 2.0611772,1.6291 0 0 0 0,3.2582 z m -10.99292,-34.7541 a 2.0611775,1.6291002 0 1 0 0,-3.25819 2.0611775,1.6291002 0 0 0 0,3.25819 z m 10.99292,0 a 2.0611775,1.6291002 0 1 0 0,-3.25819 2.0611775,1.6291002 0 0 0 0,3.25819 z m 10.99293,52.13113 a 2.0611775,1.6291002 0 1 0 0,-3.25818 2.0611775,1.6291002 0 0 0 0,3.25818 z m 0,8.68852 a 2.0611752,1.6290985 0 1 0 0,-3.25816 2.0611752,1.6290985 0 0 0 0,3.25816 z m 10.99295,8.68857 a 2.0611835,1.629105 0 1 0 0,-3.25821 2.0611835,1.629105 0 0 0 0,3.25821 z m 10.99292,-78.19674 a 2.0611842,1.6291055 0 1 0 0,-3.25821 2.0611842,1.6291055 0 0 0 0,3.25821 z m 0,17.37703 a 2.0611775,1.6291002 0 1 0 0,-3.25819 2.0611775,1.6291002 0 0 0 0,3.25819 z m 10.99294,-17.37703 a 2.0611842,1.6291055 0 1 0 0,-3.25821 2.0611842,1.6291055 0 0 0 0,3.25821 z m 10.99295,-8.68854 a 2.0611813,1.6291033 0 1 0 0,-3.2582 2.0611813,1.6291033 0 0 0 0,3.2582 z m -65.95761,0 a 2.0611813,1.6291033 0 1 0 0,-3.2582 2.0611813,1.6291033 0 0 0 0,3.2582 z m 0,8.68854 a 2.0611842,1.6291055 0 1 0 0,-3.25821 2.0611842,1.6291055 0 0 0 0,3.25821 z m 10.99292,-17.37706 a 2.0611764,1.6290994 0 1 0 0,-3.25819 2.0611764,1.6290994 0 0 0 0,3.25819 z m 65.95761,0 a 2.0611764,1.6290994 0 1 0 0,-3.25819 2.0611764,1.6290994 0 0 0 0,3.25819 z M 188.21516,92.007556 a 2.061188,1.6291085 0 1 0 0,-3.258206 2.061188,1.6291085 0 0 0 0,3.258206 z m 10.99292,-8.68857 a 2.0611755,1.6290986 0 1 0 0,-3.258191 2.0611755,1.6290986 0 0 0 0,3.258191 z m -21.98587,0 a 2.0611755,1.6290986 0 1 0 0,-3.258191 2.0611755,1.6290986 0 0 0 0,3.258191 z m 0,-8.688507 a 2.0611752,1.6290985 0 1 0 0,-3.258197 2.0611752,1.6290985 0 0 0 0,3.258197 z m -10.99294,0 a 2.0611752,1.6290985 0 1 0 0,-3.258197 2.0611752,1.6290985 0 0 0 0,3.258197 z m -10.99292,0 a 2.0611752,1.6290985 0 1 0 0,-3.258197 2.0611752,1.6290985 0 0 0 0,3.258197 z m -10.99295,0 a 2.0611752,1.6290985 0 1 0 0,-3.258197 2.0611752,1.6290985 0 0 0 0,3.258197 z M 34.31406,83.318986 a 2.0611755,1.6290986 0 1 0 0,-3.258191 2.0611755,1.6290986 0 0 0 0,3.258191 z m -21.98587,0 a 2.0611755,1.6290986 0 1 0 0,-3.258191 2.0611755,1.6290986 0 0 0 0,3.258191 z m 21.98587,8.68857 a 2.061188,1.6291085 0 1 0 0,-3.258206 2.061188,1.6291085 0 0 0 0,3.258206 z m -10.992933,8.688494 a 2.0611842,1.6291055 0 1 0 0,-3.258205 2.0611842,1.6291055 0 0 0 0,3.258205 z M 34.31406,74.630479 a 2.0611752,1.6290985 0 1 0 0,-3.258197 2.0611752,1.6290985 0 0 0 0,3.258197 z m 0,130.327861 a 2.0611775,1.6291002 0 1 0 0,-3.25818 2.0611775,1.6291002 0 0 0 0,3.25818 z m 10.992936,17.37709 a 2.0611835,1.629105 0 1 0 0,-3.25821 2.0611835,1.629105 0 0 0 0,3.25821 z M 34.31406,187.58131 a 2.0611772,1.6291 0 1 0 0,-3.2582 2.0611772,1.6291 0 0 0 0,3.2582 z m 0,8.68853 a 2.0611835,1.629105 0 1 0 0,-3.25821 2.0611835,1.629105 0 0 0 0,3.25821 z M 23.321127,178.89278 a 2.0611775,1.6291002 0 1 0 0,-3.2582 2.0611775,1.6291002 0 0 0 0,3.2582 z M 78.285808,83.318986 a 2.0611755,1.6290986 0 1 0 0,-3.258191 2.0611755,1.6290986 0 0 0 0,3.258191 z m 10.992924,0 a 2.0611755,1.6290986 0 1 0 0,-3.258191 2.0611755,1.6290986 0 0 0 0,3.258191 z M 78.285808,74.630479 a 2.0611752,1.6290985 0 1 0 0,-3.258197 2.0611752,1.6290985 0 0 0 0,3.258197 z m 21.985852,26.065571 a 2.0611842,1.6291055 0 1 0 0,-3.258205 2.0611842,1.6291055 0 0 0 0,3.258205 z m 10.99293,-8.688494 a 2.061188,1.6291085 0 1 0 0,-3.258206 2.061188,1.6291085 0 0 0 0,3.258206 z m 0,-17.377077 a 2.0611752,1.6290985 0 1 0 0,-3.258197 2.0611752,1.6290985 0 0 0 0,3.258197 z m 76.95057,95.573781 a 2.0611772,1.6291 0 1 0 0,-3.2582 2.0611772,1.6291 0 0 0 0,3.2582 z m -10.99295,8.68852 a 2.0611775,1.6291002 0 1 0 0,-3.2582 2.0611775,1.6291002 0 0 0 0,3.2582 z m 0,8.68853 a 2.0611772,1.6291 0 1 0 0,-3.2582 2.0611772,1.6291 0 0 0 0,3.2582 z m 0,8.68853 a 2.0611835,1.629105 0 1 0 0,-3.25821 2.0611835,1.629105 0 0 0 0,3.25821 z M 12.32819,161.51572 a 2.0611775,1.6291002 0 1 0 0,-3.25819 2.0611775,1.6291002 0 0 0 0,3.25819 z m 0,8.68854 a 2.0611772,1.6291 0 1 0 0,-3.2582 2.0611772,1.6291 0 0 0 0,3.2582 z m 0,-17.37705 a 2.0611775,1.6291002 0 1 0 0,-3.25819 2.0611775,1.6291002 0 0 0 0,3.25819 z m 10.992937,0 a 2.0611775,1.6291002 0 1 0 0,-3.25819 2.0611775,1.6291002 0 0 0 0,3.25819 z M 12.32819,109.38457 a 2.0611821,1.6291039 0 1 0 0,-3.2582 2.0611821,1.6291039 0 0 0 0,3.2582 z m 21.98587,34.75412 a 2.0611842,1.6291055 0 1 0 0,-3.25821 2.0611842,1.6291055 0 0 0 0,3.25821 z m 10.992936,-8.68854 a 2.0611813,1.6291033 0 1 0 0,-3.2582 2.0611813,1.6291033 0 0 0 0,3.2582 z"
       id="path6422"
       style="stroke-width:0.911;stroke:#0caef7;stroke-opacity:1;stroke-dasharray:none;fill:#00a7f3;fill-opacity:1"
       clip-path="url(#clipPath363)" /><g
       id="g6400"
       transform="matrix(0.99509151,0,0,0.99509151,1.0902756,24.678456)"><text
         xml:space="preserve"
         transform="matrix(2.1452713,0,0,5.3679603,-288.27661,-1526.351)"
         id="text184"
         style="white-space:pre;shape-inside:url(#rect186);display:inline;fill:#000000;fill-opacity:0"><tspan
           x="135.14453"
           y="311.57296"
           id="tspan2256"><tspan
             style="font-family:'Act of Rejection';-inkscape-font-specification:'Act of Rejection';fill:url(#linearGradient601);fill-opacity:1"
             id="tspan2250">C</tspan><tspan
             style="font-family:'Act of Rejection';-inkscape-font-specification:'Act of Rejection';fill:url(#linearGradient601);fill-opacity:1"
             id="tspan2252">-</tspan><tspan
             style="font-family:'Act of Rejection';-inkscape-font-specification:'Act of Rejection';fill:url(#linearGradient601);fill-opacity:1"
             id="tspan2254">Odeyssy Project</tspan></tspan></text><text
         xml:space="preserve"
         transform="matrix(2.1452713,0,0,5.3679603,-289.60881,-1523.9268)"
         id="text184-6"
         style="white-space:pre;shape-inside:url(#rect186-3);display:inline;fill:url(#linearGradient711);fill-opacity:1"
         inkscape:highlight-color="#b4cdf5"><tspan
           x="135.14453"
           y="311.57296"
           id="tspan2264"><tspan
             style="font-family:'Act of Rejection';-inkscape-font-specification:'Act of Rejection'"
             id="tspan2258">C</tspan><tspan
             style="font-family:'Act of Rejection';-inkscape-font-specification:'Act of Rejection'"
             id="tspan2260">-</tspan><tspan
             style="font-family:'Act of Rejection';-inkscape-font-specification:'Act of Rejection'"
             id="tspan2262">Odeyssy Project</tspan></tspan></text></g></g></svg>
